# xmcd CD database file
#
# Track frame offsets:
#	150
#	14263
#	27690
#	55233
#	70323
#	89555
#	105680
#	118417
#	129060
#	153257
#	170042
#	187424
#	204029
#
# Disc length: 3469 seconds
#
# Revision: 0
# Processed by: cddbd v1.5.1PL0 Copyright (c) Steve Scherf et al.
# Submitted via: CDex 1.51
#
DISCID=b90d8b0d
DTITLE=12 Girls Band  - Red Hot Classics 
DYEAR=2004
DGENRE=New Age
TTITLE0=Smiling Proudly
TTITLE1=Meeting In Mongolian House
TTITLE2=S.D. Garden
TTITLE3=Horse Racing
TTITLE4=Freedom
TTITLE5=Dreaming Of River Region
TTITLE6=Take Five
TTITLE7=Inside The Rhythm
TTITLE8=Moving Forward
TTITLE9=Liu San Jie
TTITLE10=Over The Cloud
TTITLE11=Victory
TTITLE12=Thanks For Living Years
EXTD=YEAR: 2004
EXTT0=
EXTT1=
EXTT2=
EXTT3=
EXTT4=
EXTT5=
EXTT6=
EXTT7=
EXTT8=
EXTT9=
EXTT10=
EXTT11=
EXTT12=
PLAYORDER=
